<?xml version="1.0" standalone="no"?>
<!DOCTYPE svg PUBLIC "-//W3C//DTD SVG 20010904//EN"
 "http://www.w3.org/TR/2001/REC-SVG-20010904/DTD/svg10.dtd">
<svg version="1.0" xmlns="http://www.w3.org/2000/svg"
 width="488.000000pt" height="478.000000pt" viewBox="0 0 488.000000 478.000000"
 preserveAspectRatio="xMidYMid meet">

<g transform="translate(0.000000,478.000000) scale(0.100000,-0.100000)"
fill="#000000" stroke="none">
<path d="M570 3126 l0 -1653 -285 -404 c-156 -222 -285 -406 -285 -409 0 -3
16 -16 36 -28 30 -20 39 -22 49 -10 6 7 141 197 298 421 l287 408 0 1619 0
1620 2055 0 2055 0 0 -2295 0 -2295 -2055 0 -2055 0 -2 238 -3 237 -45 0 -45
0 -3 -283 -2 -282 2155 0 2155 0 0 2385 0 2385 -2155 0 -2155 0 0 -1654z"/>
<path d="M1212 3364 l3 -799 185 0 c233 1 267 10 356 99 85 85 94 117 94 322
0 199 -13 247 -91 324 l-50 50 50 50 c78 78 91 125 91 324 0 180 -8 218 -59
288 -16 22 -47 53 -69 69 -74 54 -110 62 -320 67 l-192 4 2 -798z m392 684
c54 -16 128 -90 144 -144 15 -53 16 -284 0 -335 -15 -52 -73 -117 -122 -140
-34 -15 -67 -19 -183 -19 l-143 0 0 325 0 325 131 0 c75 0 150 -5 173 -12z
m22 -757 c49 -23 107 -88 122 -140 16 -51 15 -282 0 -335 -16 -54 -90 -128
-144 -144 -23 -7 -98 -12 -173 -12 l-131 0 0 325 0 325 143 0 c116 0 149 -4
183 -19z"/>
<path d="M2371 4149 c-98 -19 -189 -89 -234 -179 -21 -43 -22 -59 -25 -307
l-3 -263 -84 0 -85 0 0 -50 0 -50 85 0 85 0 0 -370 0 -370 45 0 45 0 0 370 0
370 135 0 135 0 0 50 0 50 -135 0 -135 0 0 238 c0 228 1 239 24 288 27 58 80
106 135 123 21 6 97 11 170 11 l131 0 0 -750 0 -750 45 0 45 0 0 800 0 800
-167 -1 c-93 -1 -188 -5 -212 -10z"/>
<path d="M3040 3463 c0 -659 1 -700 19 -739 25 -54 83 -111 140 -138 45 -20
58 -21 536 -21 l490 0 0 795 0 795 -45 0 -45 0 -3 -747 -2 -748 -225 0 -225 0
-2 748 -3 747 -45 0 -45 0 -3 -747 -2 -748 -154 0 c-85 0 -167 5 -183 11 -31
11 -78 53 -96 84 -9 14 -13 211 -17 710 l-5 690 -42 3 -43 3 0 -698z"/>
<path d="M3040 1446 l0 -796 45 0 45 0 0 751 0 751 143 -4 c153 -4 181 -12
240 -67 65 -60 62 -20 67 -756 l5 -670 48 -3 47 -3 0 658 c0 641 1 659 21 703
25 56 53 86 104 113 34 18 62 22 183 25 l142 4 0 -751 0 -751 50 0 50 0 0 796
0 795 -207 -3 c-203 -3 -209 -4 -258 -30 -28 -14 -69 -46 -91 -70 l-41 -44
-44 46 c-24 25 -66 57 -94 70 -47 24 -61 25 -252 28 l-203 3 0 -795z"/>
<path d="M1430 2201 c-90 -28 -184 -113 -216 -199 -17 -43 -19 -96 -22 -664
l-3 -617 -127 -3 -127 -3 -3 -48 -3 -47 455 0 456 0 0 795 0 795 -192 -1
c-106 0 -204 -4 -218 -8z m310 -781 l0 -700 -225 0 -225 0 0 601 c0 422 3 613
11 640 22 71 87 131 164 150 17 4 85 7 153 8 l122 1 0 -700z"/>
<path d="M2314 2190 c-68 -27 -132 -85 -169 -151 l-30 -54 -3 -399 c-3 -472
-5 -465 92 -562 71 -71 135 -98 232 -97 118 1 235 79 287 191 21 46 22 58 22
452 l0 405 -25 50 c-31 64 -92 124 -155 155 -69 34 -179 38 -251 10z m171 -81
c54 -14 118 -67 148 -123 21 -40 22 -52 25 -377 4 -364 -2 -429 -43 -491 -49
-74 -160 -114 -251 -89 -56 15 -117 70 -143 131 -21 50 -22 59 -19 423 l3 372
28 47 c31 54 71 85 130 104 53 16 68 17 122 3z"/>
<path d="M2167 713 c-4 -3 -7 -26 -7 -50 l0 -43 271 0 270 0 -3 48 -3 47 -261
3 c-143 1 -263 -1 -267 -5z"/>
</g>
</svg>
